<svg xmlns="http://www.w3.org/2000/svg" xmlns:xlink="http://www.w3.org/1999/xlink" contentStyleType="text/css" data-diagram-type="CLASS" height="670px" preserveAspectRatio="none" style="width:986px;height:670px;background:#FFFFFF;" version="1.1" viewBox="0 0 986 670" width="986px" zoomAndPan="magnify"><defs/><g><!--class Bob--><g class="entity" data-entity="Bob" data-source-line="1" data-uid="ent0002" id="entity_Bob"><rect fill="#F1F1F1" height="48" rx="2.5" ry="2.5" style="stroke:#181818;stroke-width:0.5;" width="59.0566" x="114.5" y="80.5"/><ellipse cx="129.5" cy="96.5" fill="#ADD1B2" rx="11" ry="11" style="stroke:#181818;stroke-width:1;"/><path d="M132.4688,102.1406 Q131.8906,102.4375 131.25,102.5781 Q130.6094,102.7344 129.9063,102.7344 Q127.4063,102.7344 126.0781,101.0938 Q124.7656,99.4375 124.7656,96.3125 Q124.7656,93.1875 126.0781,91.5313 Q127.4063,89.875 129.9063,89.875 Q130.6094,89.875 131.25,90.0313 Q131.9063,90.1875 132.4688,90.4844 L132.4688,93.2031 Q131.8438,92.625 131.25,92.3594 Q130.6563,92.0781 130.0313,92.0781 Q128.6875,92.0781 128,93.1563 Q127.3125,94.2188 127.3125,96.3125 Q127.3125,98.4063 128,99.4844 Q128.6875,100.5469 130.0313,100.5469 Q130.6563,100.5469 131.25,100.2813 Q131.8438,100 132.4688,99.4219 L132.4688,102.1406 Z " fill="#000000"/><text fill="#000000" font-family="sans-serif" font-size="14" lengthAdjust="spacing" textLength="27.0566" x="143.5" y="101.3467">Bob</text><line style="stroke:#181818;stroke-width:0.5;" x1="115.5" x2="172.5566" y1="112.5" y2="112.5"/><line style="stroke:#181818;stroke-width:0.5;" x1="115.5" x2="172.5566" y1="120.5" y2="120.5"/></g><!--class Alice--><g class="entity" data-entity="Alice" data-source-line="1" data-uid="ent0003" id="entity_Alice"><rect fill="#F1F1F1" height="48" rx="2.5" ry="2.5" style="stroke:#181818;stroke-width:0.5;" width="65.667" x="248" y="80.5"/><ellipse cx="263" cy="96.5" fill="#ADD1B2" rx="11" ry="11" style="stroke:#181818;stroke-width:1;"/><path d="M265.9688,102.1406 Q265.3906,102.4375 264.75,102.5781 Q264.1094,102.7344 263.4063,102.7344 Q260.9063,102.7344 259.5781,101.0938 Q258.2656,99.4375 258.2656,96.3125 Q258.2656,93.1875 259.5781,91.5313 Q260.9063,89.875 263.4063,89.875 Q264.1094,89.875 264.75,90.0313 Q265.4063,90.1875 265.9688,90.4844 L265.9688,93.2031 Q265.3438,92.625 264.75,92.3594 Q264.1563,92.0781 263.5313,92.0781 Q262.1875,92.0781 261.5,93.1563 Q260.8125,94.2188 260.8125,96.3125 Q260.8125,98.4063 261.5,99.4844 Q262.1875,100.5469 263.5313,100.5469 Q264.1563,100.5469 264.75,100.2813 Q265.3438,100 265.9688,99.4219 L265.9688,102.1406 Z " fill="#000000"/><text fill="#000000" font-family="sans-serif" font-size="14" lengthAdjust="spacing" textLength="33.667" x="277" y="101.3467">Alice</text><line style="stroke:#181818;stroke-width:0.5;" x1="249" x2="312.667" y1="112.5" y2="112.5"/><line style="stroke:#181818;stroke-width:0.5;" x1="249" x2="312.667" y1="120.5" y2="120.5"/></g><!--class Bureaucrat--><g class="entity" data-entity="Bureaucrat" data-source-line="5" data-uid="ent0005" id="entity_Bureaucrat"><rect fill="#F1F1F1" height="194.6719" rx="2.5" ry="2.5" style="stroke:#181818;stroke-width:0.5;" width="289.7441" x="349" y="7"/><ellipse cx="450.7119" cy="23" fill="#ADD1B2" rx="11" ry="11" style="stroke:#181818;stroke-width:1;"/><path d="M453.6807,28.6406 Q453.1025,28.9375 452.4619,29.0781 Q451.8213,29.2344 451.1182,29.2344 Q448.6182,29.2344 447.29,27.5938 Q445.9775,25.9375 445.9775,22.8125 Q445.9775,19.6875 447.29,18.0313 Q448.6182,16.375 451.1182,16.375 Q451.8213,16.375 452.4619,16.5313 Q453.1182,16.6875 453.6807,16.9844 L453.6807,19.7031 Q453.0557,19.125 452.4619,18.8594 Q451.8682,18.5781 451.2432,18.5781 Q449.8994,18.5781 449.2119,19.6563 Q448.5244,20.7188 448.5244,22.8125 Q448.5244,24.9063 449.2119,25.9844 Q449.8994,27.0469 451.2432,27.0469 Q451.8682,27.0469 452.4619,26.7813 Q453.0557,26.5 453.6807,25.9219 L453.6807,28.6406 Z " fill="#000000"/><text fill="#000000" font-family="sans-serif" font-size="14" lengthAdjust="spacing" textLength="77.8203" x="471.2119" y="27.8467">Bureaucrat</text><line style="stroke:#181818;stroke-width:0.5;" x1="350" x2="637.7441" y1="39" y2="39"/><rect fill="none" height="6" style="stroke:#C82930;stroke-width:1;" width="6" x="357" y="49.6484"/><text fill="#000000" font-family="sans-serif" font-size="14" lengthAdjust="spacing" textLength="93.5088" x="369" y="55.9951">name : string</text><rect fill="none" height="6" style="stroke:#C82930;stroke-width:1;" width="6" x="357" y="65.9453"/><text fill="#000000" font-family="sans-serif" font-size="14" lengthAdjust="spacing" textLength="72.5908" x="369" y="72.292">grade : int</text><line style="stroke:#181818;stroke-width:0.5;" x1="350" x2="637.7441" y1="79.5938" y2="79.5938"/><ellipse cx="360" cy="93.2422" fill="#84BE84" rx="3" ry="3" style="stroke:#038048;stroke-width:1;"/><text fill="#000000" font-family="sans-serif" font-size="14" lengthAdjust="spacing" textLength="263.7441" x="369" y="96.5889">Bureaucrat(name : string, grade : int)</text><ellipse cx="360" cy="109.5391" fill="#84BE84" rx="3" ry="3" style="stroke:#038048;stroke-width:1;"/><text fill="#000000" font-family="sans-serif" font-size="14" lengthAdjust="spacing" textLength="129.0215" x="369" y="112.8857">getName() : string</text><ellipse cx="360" cy="125.8359" fill="#84BE84" rx="3" ry="3" style="stroke:#038048;stroke-width:1;"/><text fill="#000000" font-family="sans-serif" font-size="14" lengthAdjust="spacing" textLength="108.4658" x="369" y="129.1826">getGrade() : int</text><ellipse cx="360" cy="142.1328" fill="#84BE84" rx="3" ry="3" style="stroke:#038048;stroke-width:1;"/><text fill="#000000" font-family="sans-serif" font-size="14" lengthAdjust="spacing" textLength="125.0498" x="369" y="145.4795">incrementGrade()</text><ellipse cx="360" cy="158.4297" fill="#84BE84" rx="3" ry="3" style="stroke:#038048;stroke-width:1;"/><text fill="#000000" font-family="sans-serif" font-size="14" lengthAdjust="spacing" textLength="129.7871" x="369" y="161.7764">decrementGrade()</text><ellipse cx="360" cy="174.7266" fill="#84BE84" rx="3" ry="3" style="stroke:#038048;stroke-width:1;"/><text fill="#000000" font-family="sans-serif" font-size="14" lengthAdjust="spacing" textLength="167.9727" x="369" y="178.0732">signForm(form : AForm)</text><ellipse cx="360" cy="191.0234" fill="#84BE84" rx="3" ry="3" style="stroke:#038048;stroke-width:1;"/><text fill="#000000" font-family="sans-serif" font-size="14" lengthAdjust="spacing" textLength="195.2139" x="369" y="194.3701">executeForm(form : AForm)</text></g><!--class AForm--><g class="entity" data-entity="AForm" data-source-line="17" data-uid="ent0006" id="entity_AForm"><rect fill="#F1F1F1" height="227.2656" rx="2.5" ry="2.5" style="stroke:#181818;stroke-width:0.5;" width="402.9814" x="292.5" y="279"/><ellipse cx="466.9463" cy="295" fill="#A9DCDF" rx="11" ry="11" style="stroke:#181818;stroke-width:1;"/><path d="M467.0557,290.3438 L465.8994,295.4219 L468.2275,295.4219 L467.0557,290.3438 Z M465.5713,288.1094 L468.5557,288.1094 L471.915,300.5 L469.4619,300.5 L468.6963,297.4375 L465.415,297.4375 L464.665,300.5 L462.2275,300.5 L465.5713,288.1094 Z " fill="#000000"/><text fill="#000000" font-family="sans-serif" font-size="14" font-style="italic" lengthAdjust="spacing" textLength="45.5889" x="487.4463" y="299.8467">AForm</text><line style="stroke:#181818;stroke-width:0.5;" x1="293.5" x2="694.4814" y1="311" y2="311"/><rect fill="none" height="6" style="stroke:#C82930;stroke-width:1;" width="6" x="300.5" y="321.6484"/><text fill="#000000" font-family="sans-serif" font-size="14" lengthAdjust="spacing" textLength="93.5088" x="312.5" y="327.9951">name : string</text><rect fill="none" height="6" style="stroke:#C82930;stroke-width:1;" width="6" x="300.5" y="337.9453"/><text fill="#000000" font-family="sans-serif" font-size="14" lengthAdjust="spacing" textLength="102.7441" x="312.5" y="344.292">isSigned : bool</text><rect fill="none" height="6" style="stroke:#C82930;stroke-width:1;" width="6" x="300.5" y="354.2422"/><text fill="#000000" font-family="sans-serif" font-size="14" lengthAdjust="spacing" textLength="120.2441" x="312.5" y="360.5889">gradeToSign : int</text><rect fill="none" height="6" style="stroke:#C82930;stroke-width:1;" width="6" x="300.5" y="370.5391"/><text fill="#000000" font-family="sans-serif" font-size="14" lengthAdjust="spacing" textLength="146.125" x="312.5" y="376.8857">gradeToExecute : int</text><line style="stroke:#181818;stroke-width:0.5;" x1="293.5" x2="694.4814" y1="384.1875" y2="384.1875"/><ellipse cx="303.5" cy="397.8359" fill="#84BE84" rx="3" ry="3" style="stroke:#038048;stroke-width:1;"/><text fill="#000000" font-family="sans-serif" font-size="14" lengthAdjust="spacing" textLength="376.9814" x="312.5" y="401.1826">AForm(name : string, gradeSign : int, gradeExec : int)</text><ellipse cx="303.5" cy="414.1328" fill="#84BE84" rx="3" ry="3" style="stroke:#038048;stroke-width:1;"/><text fill="#000000" font-family="sans-serif" font-size="14" lengthAdjust="spacing" textLength="129.0215" x="312.5" y="417.4795">getName() : string</text><ellipse cx="303.5" cy="430.4297" fill="#84BE84" rx="3" ry="3" style="stroke:#038048;stroke-width:1;"/><text fill="#000000" font-family="sans-serif" font-size="14" lengthAdjust="spacing" textLength="136.8965" x="312.5" y="433.7764">getIsSigned() : bool</text><ellipse cx="303.5" cy="446.7266" fill="#84BE84" rx="3" ry="3" style="stroke:#038048;stroke-width:1;"/><text fill="#000000" font-family="sans-serif" font-size="14" lengthAdjust="spacing" textLength="156.1191" x="312.5" y="450.0732">getGradeToSign() : int</text><ellipse cx="303.5" cy="463.0234" fill="#84BE84" rx="3" ry="3" style="stroke:#038048;stroke-width:1;"/><text fill="#000000" font-family="sans-serif" font-size="14" lengthAdjust="spacing" textLength="182" x="312.5" y="466.3701">getGradeToExecute() : int</text><ellipse cx="303.5" cy="479.3203" fill="#84BE84" rx="3" ry="3" style="stroke:#038048;stroke-width:1;"/><text fill="#000000" font-family="sans-serif" font-size="14" lengthAdjust="spacing" textLength="176.7842" x="312.5" y="482.667">beSigned(b : Bureaucrat)</text><ellipse cx="303.5" cy="495.6172" fill="#84BE84" rx="3" ry="3" style="stroke:#038048;stroke-width:1;"/><text fill="#000000" font-family="sans-serif" font-size="14" lengthAdjust="spacing" textLength="263.6826" x="312.5" y="498.9639">execute(executor : Bureaucrat) : void</text></g><!--class ShrubberyCreationForm--><g class="entity" data-entity="ShrubberyCreationForm" data-source-line="31" data-uid="ent0007" id="entity_ShrubberyCreationForm"><rect fill="#F1F1F1" height="96.8906" rx="2.5" ry="2.5" style="stroke:#181818;stroke-width:0.5;" width="301.9121" x="7" y="567"/><ellipse cx="69.5215" cy="583" fill="#ADD1B2" rx="11" ry="11" style="stroke:#181818;stroke-width:1;"/><path d="M72.4902,588.6406 Q71.9121,588.9375 71.2715,589.0781 Q70.6309,589.2344 69.9277,589.2344 Q67.4277,589.2344 66.0996,587.5938 Q64.7871,585.9375 64.7871,582.8125 Q64.7871,579.6875 66.0996,578.0313 Q67.4277,576.375 69.9277,576.375 Q70.6309,576.375 71.2715,576.5313 Q71.9277,576.6875 72.4902,576.9844 L72.4902,579.7031 Q71.8652,579.125 71.2715,578.8594 Q70.6777,578.5781 70.0527,578.5781 Q68.709,578.5781 68.0215,579.6563 Q67.334,580.7188 67.334,582.8125 Q67.334,584.9063 68.0215,585.9844 Q68.709,587.0469 70.0527,587.0469 Q70.6777,587.0469 71.2715,586.7813 Q71.8652,586.5 72.4902,585.9219 L72.4902,588.6406 Z " fill="#000000"/><text fill="#000000" font-family="sans-serif" font-size="14" lengthAdjust="spacing" textLength="168.3691" x="90.0215" y="587.8467">ShrubberyCreationForm</text><line style="stroke:#181818;stroke-width:0.5;" x1="8" x2="307.9121" y1="599" y2="599"/><rect fill="none" height="6" style="stroke:#C82930;stroke-width:1;" width="6" x="15" y="609.6484"/><text fill="#000000" font-family="sans-serif" font-size="14" lengthAdjust="spacing" textLength="96.6191" x="27" y="615.9951">target : string</text><line style="stroke:#181818;stroke-width:0.5;" x1="8" x2="307.9121" y1="623.2969" y2="623.2969"/><ellipse cx="18" cy="636.9453" fill="#84BE84" rx="3" ry="3" style="stroke:#038048;stroke-width:1;"/><text fill="#000000" font-family="sans-serif" font-size="14" lengthAdjust="spacing" textLength="275.9121" x="27" y="640.292">ShrubberyCreationForm(target : string)</text><ellipse cx="18" cy="653.2422" fill="#84BE84" rx="3" ry="3" style="stroke:#038048;stroke-width:1;"/><text fill="#000000" font-family="sans-serif" font-size="14" lengthAdjust="spacing" textLength="263.6826" x="27" y="656.5889">execute(executor : Bureaucrat) : void</text></g><!--class RobotomyRequestForm--><g class="entity" data-entity="RobotomyRequestForm" data-source-line="37" data-uid="ent0008" id="entity_RobotomyRequestForm"><rect fill="#F1F1F1" height="96.8906" rx="2.5" ry="2.5" style="stroke:#181818;stroke-width:0.5;" width="298.7744" x="344.5" y="567"/><ellipse cx="407.0215" cy="583" fill="#ADD1B2" rx="11" ry="11" style="stroke:#181818;stroke-width:1;"/><path d="M409.9902,588.6406 Q409.4121,588.9375 408.7715,589.0781 Q408.1309,589.2344 407.4277,589.2344 Q404.9277,589.2344 403.5996,587.5938 Q402.2871,585.9375 402.2871,582.8125 Q402.2871,579.6875 403.5996,578.0313 Q404.9277,576.375 407.4277,576.375 Q408.1309,576.375 408.7715,576.5313 Q409.4277,576.6875 409.9902,576.9844 L409.9902,579.7031 Q409.3652,579.125 408.7715,578.8594 Q408.1777,578.5781 407.5527,578.5781 Q406.209,578.5781 405.5215,579.6563 Q404.834,580.7188 404.834,582.8125 Q404.834,584.9063 405.5215,585.9844 Q406.209,587.0469 407.5527,587.0469 Q408.1777,587.0469 408.7715,586.7813 Q409.3652,586.5 409.9902,585.9219 L409.9902,588.6406 Z " fill="#000000"/><text fill="#000000" font-family="sans-serif" font-size="14" lengthAdjust="spacing" textLength="165.2314" x="427.5215" y="587.8467">RobotomyRequestForm</text><line style="stroke:#181818;stroke-width:0.5;" x1="345.5" x2="642.2744" y1="599" y2="599"/><rect fill="none" height="6" style="stroke:#C82930;stroke-width:1;" width="6" x="352.5" y="609.6484"/><text fill="#000000" font-family="sans-serif" font-size="14" lengthAdjust="spacing" textLength="96.6191" x="364.5" y="615.9951">target : string</text><line style="stroke:#181818;stroke-width:0.5;" x1="345.5" x2="642.2744" y1="623.2969" y2="623.2969"/><ellipse cx="355.5" cy="636.9453" fill="#84BE84" rx="3" ry="3" style="stroke:#038048;stroke-width:1;"/><text fill="#000000" font-family="sans-serif" font-size="14" lengthAdjust="spacing" textLength="272.7744" x="364.5" y="640.292">RobotomyRequestForm(target : string)</text><ellipse cx="355.5" cy="653.2422" fill="#84BE84" rx="3" ry="3" style="stroke:#038048;stroke-width:1;"/><text fill="#000000" font-family="sans-serif" font-size="14" lengthAdjust="spacing" textLength="263.6826" x="364.5" y="656.5889">execute(executor : Bureaucrat) : void</text></g><!--class PresidentialPardonForm--><g class="entity" data-entity="PresidentialPardonForm" data-source-line="43" data-uid="ent0009" id="entity_PresidentialPardonForm"><rect fill="#F1F1F1" height="96.8906" rx="2.5" ry="2.5" style="stroke:#181818;stroke-width:0.5;" width="300.873" x="678.5" y="567"/><ellipse cx="741.0215" cy="583" fill="#ADD1B2" rx="11" ry="11" style="stroke:#181818;stroke-width:1;"/><path d="M743.9902,588.6406 Q743.4121,588.9375 742.7715,589.0781 Q742.1309,589.2344 741.4277,589.2344 Q738.9277,589.2344 737.5996,587.5938 Q736.2871,585.9375 736.2871,582.8125 Q736.2871,579.6875 737.5996,578.0313 Q738.9277,576.375 741.4277,576.375 Q742.1309,576.375 742.7715,576.5313 Q743.4277,576.6875 743.9902,576.9844 L743.9902,579.7031 Q743.3652,579.125 742.7715,578.8594 Q742.1777,578.5781 741.5527,578.5781 Q740.209,578.5781 739.5215,579.6563 Q738.834,580.7188 738.834,582.8125 Q738.834,584.9063 739.5215,585.9844 Q740.209,587.0469 741.5527,587.0469 Q742.1777,587.0469 742.7715,586.7813 Q743.3652,586.5 743.9902,585.9219 L743.9902,588.6406 Z " fill="#000000"/><text fill="#000000" font-family="sans-serif" font-size="14" lengthAdjust="spacing" textLength="167.3301" x="761.5215" y="587.8467">PresidentialPardonForm</text><line style="stroke:#181818;stroke-width:0.5;" x1="679.5" x2="978.373" y1="599" y2="599"/><rect fill="none" height="6" style="stroke:#C82930;stroke-width:1;" width="6" x="686.5" y="609.6484"/><text fill="#000000" font-family="sans-serif" font-size="14" lengthAdjust="spacing" textLength="96.6191" x="698.5" y="615.9951">target : string</text><line style="stroke:#181818;stroke-width:0.5;" x1="679.5" x2="978.373" y1="623.2969" y2="623.2969"/><ellipse cx="689.5" cy="636.9453" fill="#84BE84" rx="3" ry="3" style="stroke:#038048;stroke-width:1;"/><text fill="#000000" font-family="sans-serif" font-size="14" lengthAdjust="spacing" textLength="274.873" x="698.5" y="640.292">PresidentialPardonForm(target : string)</text><ellipse cx="689.5" cy="653.2422" fill="#84BE84" rx="3" ry="3" style="stroke:#038048;stroke-width:1;"/><text fill="#000000" font-family="sans-serif" font-size="14" lengthAdjust="spacing" textLength="263.6826" x="698.5" y="656.5889">execute(executor : Bureaucrat) : void</text></g><!--link Bob to Alice--><g class="link" data-entity-1="Bob" data-entity-2="Alice" data-source-line="1" data-uid="lnk4" id="link_Bob_Alice"><path codeLine="1" d="M173.73,104.5 C195.6,104.5 219.35,104.5 241.97,104.5" fill="none" id="Bob-to-Alice" style="stroke:#181818;stroke-width:1;"/><polygon fill="#181818" points="247.97,104.5,238.97,100.5,242.97,104.5,238.97,108.5,247.97,104.5" style="stroke:#181818;stroke-width:1;"/><text fill="#000000" font-family="sans-serif" font-size="13" lengthAdjust="spacing" textLength="38.1621" x="191.75" y="97.5669">Hello!</text></g><!--link Bureaucrat to AForm--><g class="link" data-entity-1="Bureaucrat" data-entity-2="AForm" data-source-line="49" data-uid="lnk10" id="link_Bureaucrat_AForm"><path codeLine="49" d="M494,202.33 C494,226.96 494,247.64 494,272.98" fill="none" id="Bureaucrat-to-AForm" style="stroke:#181818;stroke-width:1;"/><polygon fill="#181818" points="494,278.98,498,269.98,494,273.98,490,269.98,494,278.98" style="stroke:#181818;stroke-width:1;"/><text fill="#000000" font-family="sans-serif" font-size="13" lengthAdjust="spacing" textLength="105.2378" x="495" y="245.0669">signs / executes</text></g><!--reverse link AForm to ShrubberyCreationForm--><g class="link" data-entity-1="AForm" data-entity-2="ShrubberyCreationForm" data-source-line="50" data-uid="lnk11" id="link_AForm_ShrubberyCreationForm"><path codeLine="50" d="M307.5129,516.1637 C275.0029,537.5537 257.69,548.93 230.39,566.89" fill="none" id="AForm-backto-ShrubberyCreationForm" style="stroke:#181818;stroke-width:1;"/><polygon fill="none" points="322.55,506.27,304.215,511.1513,310.8108,521.1761,322.55,506.27" style="stroke:#181818;stroke-width:1;"/></g><!--reverse link AForm to RobotomyRequestForm--><g class="link" data-entity-1="AForm" data-entity-2="RobotomyRequestForm" data-source-line="51" data-uid="lnk12" id="link_AForm_RobotomyRequestForm"><path codeLine="51" d="M494,524.27 C494,545.66 494,548.93 494,566.89" fill="none" id="AForm-backto-RobotomyRequestForm" style="stroke:#181818;stroke-width:1;"/><polygon fill="none" points="494,506.27,488,524.27,500,524.27,494,506.27" style="stroke:#181818;stroke-width:1;"/></g><!--reverse link AForm to PresidentialPardonForm--><g class="link" data-entity-1="AForm" data-entity-2="PresidentialPardonForm" data-source-line="52" data-uid="lnk13" id="link_AForm_PresidentialPardonForm"><path codeLine="52" d="M679.9559,516.1807 C712.3859,537.5707 729.61,548.93 756.83,566.89" fill="none" id="AForm-backto-PresidentialPardonForm" style="stroke:#181818;stroke-width:1;"/><polygon fill="none" points="664.93,506.27,676.6523,521.1893,683.2595,511.1721,664.93,506.27" style="stroke:#181818;stroke-width:1;"/></g><!--SRC=[hLJHJiCW57tlL-1R5sryNup9PfpwOfRD7m1whIGK8b3Zelwxby9MsX3Jg3oquPnpBuT3orepKbsJbHGSbkGUfDHd1GukgRLatHcW7JVKaO-2uAY8eYsG9R7E2DL4h36qzg1GhaVEay9oL72HQXTHt81xH56v6FVjYJilxvcXkL3SG0lgI4QuXYniHQCsshJbCpwmpyfFZYIy0-ySPFYleg0CtL3kI0YZ9txCGTWzBWOruanhcQRpf3sLREE4tmOBentsIsMJ6xf4m9VFZ_CXEkp9aySXwM1palT0HgyJda5ioX0UJdwISHdUsen5E7lJelPvXvZtBwPZ3CpX1ZLEQ3MAtL63TgOxozQK4-ql_UmqqqwtXnsyTc3T33UPYd_oiZLWHOsVkA1oIqqzAvnyqPyT9NT3vM-GJVXz_EzcoUMnZoq2SVLPLVbZIWMPv58wlvDl]--></g></svg>@startuml
@startuml
class Bureaucrat {
    - name : string
    - grade : int
    + Bureaucrat(name : string, grade : int)
    + getName() : string
    + getGrade() : int
    + incrementGrade()
    + decrementGrade()
    + signForm(form : AForm)
    + executeForm(form : AForm)
}

abstract class AForm {
    - name : string
    - isSigned : bool
    - gradeToSign : int
    - gradeToExecute : int
    + AForm(name : string, gradeSign : int, gradeExec : int)
    + getName() : string
    + getIsSigned() : bool
    + getGradeToSign() : int
    + getGradeToExecute() : int
    + beSigned(b : Bureaucrat)
    + execute(executor : Bureaucrat) : void
}

class ShrubberyCreationForm {
    - target : string
    + ShrubberyCreationForm(target : string)
    + execute(executor : Bureaucrat) : void
}

class RobotomyRequestForm {
    - target : string
    + RobotomyRequestForm(target : string)
    + execute(executor : Bureaucrat) : void
}

class PresidentialPardonForm {
    - target : string
    + PresidentialPardonForm(target : string)
    + execute(executor : Bureaucrat) : void
}

Bureaucrat --> AForm : signs / executes
AForm <|-- ShrubberyCreationForm
AForm <|-- RobotomyRequestForm
AForm <|-- PresidentialPardonForm
@enduml